<svg xmlns="http://www.w3.org/2000/svg" viewBox="0 0 387 40" width="387" height="40">
	<style>
		tspan { white-space:pre }
		.shp0 { fill: #ff4d5a } 
	</style>
	<g id="Layer_2">
		<g id="Layer_1-2">
			<path id="Layer" fill-rule="evenodd" class="shp0" d="M0 38.47L0 1.75L14.48 1.75C32.7 1.75 32.7 9.69 32.7 12.3C32.7 22.41 20.18 23.5 14.8 23.5L7.28 23.5C7.02 23.5 6.76 23.55 6.51 23.65C6.27 23.75 6.05 23.9 5.87 24.09C5.68 24.27 5.53 24.49 5.43 24.73C5.33 24.98 5.28 25.24 5.28 25.5L5.28 38.5L0 38.47ZM7.28 3.53C7.02 3.53 6.76 3.58 6.51 3.68C6.27 3.78 6.05 3.93 5.87 4.12C5.68 4.3 5.53 4.52 5.43 4.76C5.33 5.01 5.28 5.27 5.28 5.53L5.28 19.72C5.28 19.98 5.33 20.24 5.43 20.49C5.53 20.73 5.68 20.95 5.87 21.13C6.05 21.32 6.27 21.47 6.51 21.57C6.76 21.67 7.02 21.72 7.28 21.72L14 21.72C23 21.72 27.52 18.55 27.52 12.3C27.52 3.53 17.52 3.53 13.68 3.53L7.28 3.53Z" />
			<path id="Layer" fill-rule="evenodd" class="shp0" d="M64.88 39.22C52.08 39.22 43.81 31.66 43.81 19.95C43.81 8.24 51.88 0.95 64.88 0.95C77.88 0.95 86 8.26 86 20C86 31.74 77.68 39.22 64.88 39.22ZM64.88 3.28C55.44 3.28 49.34 9.82 49.34 19.95C49.34 30.08 55.59 36.95 64.88 36.95C74.17 36.95 80.42 30.12 80.42 19.95C80.42 9.78 74.32 3.28 64.88 3.28Z" />
			<path id="Layer" fill-rule="evenodd" class="shp0" d="M128 38.47L117.36 23.4C117.27 23.27 117.16 23.15 117.04 23.05C116.92 22.94 116.79 22.85 116.65 22.78C116.51 22.71 116.36 22.65 116.2 22.62C116.05 22.58 115.89 22.56 115.73 22.56L107.73 22.56C107.47 22.56 107.21 22.61 106.96 22.71C106.72 22.81 106.5 22.96 106.32 23.15C106.13 23.33 105.98 23.55 105.88 23.79C105.78 24.04 105.73 24.3 105.73 24.56L105.73 38.47L100.45 38.47L100.45 1.75L116.08 1.75C133.35 1.75 133.35 9.33 133.35 11.83C133.35 16.68 130.35 19.96 124.35 21.57C124.04 21.65 123.75 21.81 123.51 22.04C123.27 22.26 123.09 22.53 122.98 22.84C122.87 23.15 122.84 23.48 122.89 23.8C122.94 24.12 123.07 24.43 123.26 24.69L133.42 38.47L128 38.47ZM107.76 3.53C107.5 3.53 107.24 3.58 106.99 3.68C106.75 3.78 106.53 3.93 106.35 4.12C106.16 4.3 106.01 4.52 105.91 4.76C105.81 5.01 105.76 5.27 105.76 5.53L105.76 18.78C105.76 19.04 105.81 19.3 105.91 19.55C106.01 19.79 106.16 20.01 106.35 20.19C106.53 20.38 106.75 20.53 106.99 20.63C107.24 20.73 107.5 20.78 107.76 20.78L115.15 20.78C126.52 20.78 128.22 15.17 128.22 11.78C128.22 3.48 118.73 3.48 115.15 3.48L107.76 3.53Z" />
			<path id="Layer" class="shp0" d="M157.12 38.47L157.12 5.83C157.12 5.57 157.07 5.31 156.97 5.06C156.87 4.82 156.72 4.6 156.53 4.42C156.35 4.23 156.13 4.08 155.89 3.98C155.64 3.88 155.38 3.83 155.12 3.83L142 3.83L142 1.75L177.5 1.75L177.5 3.83L164.4 3.83C164.14 3.83 163.88 3.88 163.63 3.98C163.39 4.08 163.17 4.23 162.99 4.42C162.8 4.6 162.65 4.82 162.55 5.06C162.45 5.31 162.4 5.57 162.4 5.83L162.4 38.47L157.12 38.47Z" />
			<path id="Layer" class="shp0" d="M190.24 38.47L190.24 1.75L217.85 1.75L217.85 3.83L197.52 3.83C197.26 3.83 197 3.88 196.75 3.98C196.51 4.08 196.29 4.23 196.11 4.42C195.92 4.6 195.77 4.82 195.67 5.06C195.57 5.31 195.52 5.57 195.52 5.83L195.52 17.38C195.52 17.64 195.57 17.9 195.67 18.15C195.77 18.39 195.92 18.61 196.11 18.79C196.29 18.98 196.51 19.13 196.75 19.23C197 19.33 197.26 19.38 197.52 19.38L214.52 19.38L214.52 21.46L197.52 21.46C197.26 21.46 197 21.51 196.75 21.61C196.51 21.71 196.29 21.86 196.11 22.05C195.92 22.23 195.77 22.45 195.67 22.69C195.57 22.94 195.52 23.2 195.52 23.46L195.52 38.46L190.24 38.47Z" />
			<path id="Layer" fill-rule="evenodd" class="shp0" d="M248.56 39.22C235.76 39.22 227.49 31.66 227.49 19.95C227.49 8.24 235.56 0.95 248.56 0.95C261.56 0.95 269.63 8.21 269.63 19.95C269.63 31.69 261.36 39.22 248.56 39.22ZM248.56 3.28C239.12 3.28 233 9.82 233 20C233 30.18 239.25 37 248.54 37C257.83 37 264.07 30.17 264.07 20C264.07 9.83 258 3.28 248.56 3.28Z" />
			<path id="Layer" class="shp0" d="M284.16 38.47L284.16 1.75L289.44 1.75L289.44 34.4C289.44 34.66 289.49 34.92 289.59 35.17C289.69 35.41 289.84 35.63 290.03 35.81C290.21 36 290.43 36.15 290.67 36.25C290.92 36.35 291.18 36.4 291.44 36.4L311.17 36.4L311.17 38.47L284.16 38.47Z" />
			<path id="Layer" class="shp0" d="M324.32 1.75L329.6 1.75L329.6 38.48L324.32 38.48L324.32 1.75Z" />
			<path id="Layer" fill-rule="evenodd" class="shp0" d="M365.2 39.22C352.4 39.22 344.13 31.66 344.13 19.95C344.13 8.24 352.2 0.95 365.2 0.95C378.2 0.95 386.27 8.21 386.27 19.95C386.27 31.69 378 39.22 365.2 39.22ZM365.2 3.28C355.76 3.28 349.66 9.82 349.66 19.95C349.66 30.08 355.91 36.95 365.2 36.95C374.49 36.95 380.73 30.12 380.73 19.95C380.73 9.78 374.64 3.28 365.2 3.28Z" />
		</g>
	</g>
</svg>